<svg xmlns="http://www.w3.org/2000/svg" xmlns:xlink="http://www.w3.org/1999/xlink" xml:space="preserve" width="179.917mm" height="159.803mm" version="1.1" style="shape-rendering:geometricPrecision; text-rendering:geometricPrecision; image-rendering:optimizeQuality; fill-rule:evenodd; clip-rule:evenodd" viewBox="0 0 17991.66 15980.3">

    <path class="fil0" d="M9313.33 15168.91l0 -5644.44 3018.74 -1320.43c350.86,-146.18 668.25,-295.54 1003.91,-442.48 338.29,-148.1 656.33,-293.4 1006.92,-439.47l3013.76 -1325.4 0 5750.27c-337.96,178.83 -1057.81,466.29 -1471.76,644.91l-518.68 222.15c-1296.75,541.49 -2752.92,1196.72 -4012.18,1702.82 -346.96,139.45 -666.2,290.76 -1012.64,433.75 -225.02,92.88 -827.53,371.6 -1028.07,418.32zm-8678.33 -9172.22c148.02,78.32 335.15,141.4 493.42,212.13 166.72,74.51 321.83,152.78 509.48,231.36l1496.8 655.14c166.91,68.89 334.16,152.36 513.82,227.01l5029.81 2202.14 0 5644.44c-186.29,-43.4 -334.34,-123.38 -509.01,-196.55l-6531.42 -2781.91c-347.57,-145.59 -690.93,-278.41 -1002.9,-443.49l0 -5750.27zm6773.33 317.5c229.58,121.48 408.79,215.36 697.87,289.9 418.03,107.79 701.02,147.93 1106.81,103.88 596.95,-64.8 755.06,-68.23 1370.32,-393.78 0,796.63 106.81,979.08 -296.18,1220.77 -874.74,524.62 -2841.61,305.3 -2880.99,-407.22 -13.79,-249.49 2.17,-557.18 2.17,-813.55zm0 -881.95c0,-244.42 345.76,-403.63 543.55,-479.5 1258.74,-482.79 3345.71,177.32 2400.3,812.8 -125.41,84.31 -225.09,131.96 -380.81,183.64 -418.75,138.96 -419.35,91.49 -722.99,123.7 -364.88,38.71 -278.96,50.53 -767.85,-19.51 -339.26,-48.6 -1072.2,-238.56 -1072.2,-621.13zm-4868.33 -1340.55c1032.16,546.15 2147.25,543.81 3175,0 0,257.35 6.62,522.26 2.26,778.37 -4.76,279.27 -146.25,354.92 -320.59,455.52 -172.25,99.4 -362.35,159 -571.78,204.33 -595.88,128.97 -1433.21,102.54 -1966.57,-204.32 -168.14,-96.73 -307.93,-196.92 -319.98,-456.13 -11.38,-244.62 1.66,-528.51 1.66,-777.77zm11324.16 1375.83c-384.12,0 -941.72,-94.09 -1269.17,-283.05 -431.72,-249.13 -318.33,-434.03 -318.33,-1233.89 755.84,399.94 1582.39,532.26 2447.07,295.12 282.26,-77.41 502.79,-175.99 727.93,-295.12 0,801.96 207.85,1200.58 -890.11,1438.22 -171.74,37.17 -510.88,78.72 -697.39,78.72zm-7090.83 -35.28l0 1763.89c0,905.37 1981.31,1724.27 3633.68,952.57 322.67,-150.69 811.32,-510.5 811.32,-917.29l0 -1799.17c0,-362.34 -322.18,-673.43 -556.58,-819.25 -129.83,-80.78 -297.05,-159.2 -442.38,-227.9 -192.21,-90.85 -300.25,-80.5 -449.98,-149.74 -72.75,-33.65 -31.59,-12.53 -68,-37.83 283.02,0 765.73,-233.97 943.41,-361.86 139.71,-100.55 238.37,-193.1 354.08,-316.2 119.35,-126.96 184.17,-247.81 184.17,-486.1 171.86,14.3 332.31,109.56 458.61,176.38 0,423.34 0.11,846.67 0,1270.01 -0.15,588.43 -2.62,652.56 308,962 808.18,805.13 2663.78,871.39 3668.85,122.06 145.31,-108.34 312.13,-225.82 362.32,-413.79 144.95,3.23 348.8,106.17 470.41,164.59 146.44,70.37 332.39,115.45 411.53,223.47 -132.07,10.99 -1796.52,744.64 -1970.89,816.04l-5896.05 2500.07 -4883.65 -2066.07c-347.6,-138.11 -643.07,-279.27 -987.58,-423.53 -350.58,-146.81 -641.93,-270.63 -993.05,-418.07 -175.02,-73.49 -873.97,-397.73 -1002.66,-408.44 71.41,-97.47 668.49,-354.77 811.39,-388.06 163.31,701.01 1485.74,1093.61 2187.22,1093.61 635.86,0 1496.4,-242.8 1932.08,-678.47 319.22,-319.2 290.44,-414.57 290.42,-1014.86 -0.02,-446.85 0,-893.7 0,-1340.56 131.4,-69.53 254.6,-112.35 388.05,-176.38 57.94,696.21 1094.12,1155.53 1481.67,1164.16 -71.57,97.68 -73.87,68.21 -210.53,106.98 -480.48,136.3 -1235.86,554.79 -1235.86,1127.74zm-4233.33 -2257.77c0,-345.83 896.06,-599.73 1340.55,-599.73l493.89 0c1076.29,0 1989.25,732.85 728.6,1151.94 -884.66,294.1 -2563.04,94.04 -2563.04,-552.21zm9736.66 -105.84c0,-390.78 839.69,-635 1270,-635 560.62,0 1209.2,-29.85 1694.93,315.91 506.69,360.68 -18.37,696.64 -379.38,823.25 -504.45,176.92 -1403.22,195.75 -1946.94,21.4 -218.77,-70.15 -638.61,-249.54 -638.61,-525.56zm-3280.83 599.73c-466.52,0 -974.77,-100.16 -1281.92,-270.31 -468.01,-259.25 -340.86,-517.45 -340.86,-1246.64 748.17,395.88 1635.12,551.48 2482.6,295.38 294.53,-89.01 488.22,-168.67 727.68,-295.38 0,284.72 -37.11,437.42 -33.52,742.59 2.42,206.13 25.34,197.16 -77.87,310.19 -305.76,334.87 -943.72,464.17 -1476.11,464.17zm-1622.78 -2398.89c0,-231.32 361.81,-406.25 543.36,-479.7 767.12,-310.35 2631.64,-167.07 2631.64,479.7 0,582.35 -1586.72,840.88 -2563.04,516.93 -216.69,-71.9 -611.96,-270.73 -611.96,-516.93zm-635 1093.61c-156.27,36.41 -531.72,208.91 -670.28,282.22 -242.19,-361.69 -1136.47,-705.55 -1763.88,-705.55 -767.35,0 -1534.64,140.87 -2037.97,607.86 -204.48,189.72 -363.38,380.41 -362.24,766.65 1.14,388.5 1.32,776.95 1.32,1165.48l-1011.26 435.13c-409.3,196.66 -893.74,276.76 -893.74,587.93l0 6138.33c0,736.14 1037.76,954.49 1657.52,1235.25 1199.84,543.55 2584.71,1086.11 3809.55,1623.23 367.82,161.29 3408.17,1480.69 3528.76,1480.69 118.55,0 999.9,-403.65 1179.29,-478.77l7004.17 -2979.43c305.87,-134.11 812.37,-351.85 812.37,-880.97l0 -6138.33c0,-299.07 -442.69,-376.59 -870.09,-576.3 -183.15,-85.57 -327.41,-143.55 -515.88,-224.95 -151.56,-65.46 -367.95,-186.61 -519.03,-221.81 0,-339.27 55.43,-1431.89 -69.54,-1694.34 -63.33,-133 -148.37,-244.89 -255.99,-343.73 -881.7,-809.69 -2543.28,-850.58 -3584.26,-178.38 -153.34,99.01 -219.91,218.44 -358.82,311.45 -141.94,-33.06 -182.84,-61.46 -307.75,-115.57 -105.15,-45.56 -229.9,-108.69 -327.25,-131.37 0,-353.56 16.43,-746.25 1.12,-1094.73 -13.65,-310.76 -249,-537.29 -434.26,-694.63 -826.86,-702.21 -2638.6,-738.21 -3564.69,14.03 -200.02,162.47 -408.65,383.64 -443.93,684.96 -34.3,292.95 -3.24,808.9 -3.24,1125.65z"/>

</svg>